<svg width="565" height="565" viewBox="0 0 565 565" fill="none" xmlns="http://www.w3.org/2000/svg">
<path d="M35.0966 384.456L24.8195 391.216C17.5993 374.025 14.0104 360.967 17.6347 359.185C17.6418 359.185 25.6635 369.63 35.0966 384.456Z" fill="#D6E7FA"/>
<path d="M64.9419 456.3C64.949 456.712 64.956 457.117 64.949 457.528C53.2108 459.744 13.0386 398.976 13.0386 398.976L24.8264 391.215L35.1035 384.455C48.402 405.367 64.5305 434.991 64.9419 456.3Z" fill="url(#paint0_linear_562_12537)"/>
<path d="M549.788 191.501C549.788 191.501 346.019 292.679 312.117 314.116C278.208 335.553 82.8574 453.361 82.8574 453.361C82.8574 453.361 82.6305 450.854 81.985 446.558C79.2544 428.572 69.0198 379.215 36.387 351.011C35.2522 350.017 34.0819 349.051 32.8833 348.121C32.8833 348.121 149.13 293.85 226.29 256.231C254.951 242.264 278.215 230.59 288.13 224.846C296.904 219.762 313.273 210.367 333.076 199.013C395.887 163.006 493.318 107.35 493.318 107.35C493.318 107.35 542.71 106.179 549.788 191.501Z" fill="url(#paint1_linear_562_12537)"/>
<path d="M81.985 446.558L68.4098 455.398L66.5161 456.627L66.5019 456.634L65.2749 457.436L64.9487 457.649C64.9487 457.607 64.9487 457.557 64.9487 457.521C64.9557 457.117 64.9487 456.705 64.9416 456.293C64.5302 434.984 48.4088 405.36 35.1032 384.455C25.6701 369.629 17.6484 359.184 17.6484 359.184C17.7123 359.155 17.7761 359.127 17.8399 359.098L36.394 351.011C69.0198 379.215 79.2543 428.572 81.985 446.558Z" fill="url(#paint2_linear_562_12537)"/>
<path opacity="0.5" d="M345.976 284.095C340.891 296.691 330.132 306.824 315.755 310.808C290.64 317.752 263.951 303.323 256.135 278.563C252.319 266.485 253.709 254.194 259.036 243.947C264.632 233.175 274.59 224.704 287.456 221.133C312.585 214.181 339.281 228.61 347.09 253.37C350.43 263.943 349.785 274.7 345.976 284.095Z" fill="#9C9BAE"/>
<path d="M314.578 277.902L312.776 277.32L275.59 398.962C262.923 398.309 244.716 362.145 244.716 362.145L206.608 387.481C220.516 368.678 225.396 275.147 247.652 245.743C253.717 237.734 283.059 226.777 283.059 226.777L314.578 277.902Z" fill="url(#paint3_linear_562_12537)"/>
<path d="M404.157 271.646C407.263 290.804 430.03 315.245 430.03 315.245L314.578 277.895L283.059 226.777L307.549 213.662C307.549 213.662 362.942 210.041 380.893 220.486C398.844 230.924 448.06 252.077 448.06 252.077C444.109 260.164 404.157 271.646 404.157 271.646Z" fill="url(#paint4_linear_562_12537)"/>
<path d="M333.083 199.014L322.657 222.126L249.979 256.508L226.29 256.231C254.951 242.264 278.215 230.591 288.13 224.846C296.911 219.769 313.28 210.375 333.083 199.014Z" fill="url(#paint5_linear_562_12537)"/>
<path d="M342.927 274.516C337.842 287.112 327.082 297.245 312.706 301.228C287.591 308.173 260.902 293.744 253.086 268.984C249.27 256.906 250.66 244.614 255.986 234.368C261.583 223.596 271.54 215.125 284.406 211.554C309.535 204.602 336.232 219.031 344.04 243.791C347.374 254.371 346.736 265.121 342.927 274.516Z" fill="#142533"/>
<path d="M342.927 274.515C337.317 285.237 327.373 293.694 314.535 297.244C289.421 304.203 262.731 289.781 254.915 265C251.589 254.448 252.22 243.733 255.986 234.367C258.646 229.248 262.292 224.647 266.767 220.848C271.703 216.644 277.654 213.42 284.413 211.546C309.542 204.594 336.231 219.023 344.04 243.783C344.239 244.429 344.43 245.075 344.608 245.714C347.289 255.67 346.501 265.696 342.927 274.515Z" fill="url(#paint6_linear_562_12537)"/>
<path d="M331.813 268.295C327.6 276.347 320.139 282.695 310.5 285.358C291.648 290.584 271.604 279.748 265.739 261.151C263.242 253.234 263.717 245.182 266.547 238.152C270.753 230.065 278.222 223.702 287.882 221.025C306.748 215.806 326.791 226.642 332.65 245.232C335.146 253.17 334.671 261.244 331.813 268.295Z" fill="url(#paint7_linear_562_12537)"/>
<path d="M344.608 245.722C341.998 246.645 339.31 247.441 336.536 248.108C305.429 255.557 275.477 243.464 266.767 220.855C271.704 216.652 277.654 213.428 284.413 211.554C309.542 204.602 336.232 219.031 344.04 243.791C344.239 244.43 344.431 245.076 344.608 245.722Z" fill="url(#paint8_linear_562_12537)"/>
<path d="M304.039 269.616L283.499 262.934C282.364 262.565 281.584 261.507 281.626 260.399L281.761 257.253C281.818 255.833 283.208 254.917 284.69 255.329L296.045 258.475C297.457 258.865 298.797 258.056 298.96 256.714L301.812 232.72C301.96 231.435 303.209 230.626 304.571 230.917L309.507 231.975C310.855 232.266 311.805 233.523 311.635 234.787L307.074 267.933C306.876 269.296 305.464 270.077 304.039 269.616Z" fill="white"/>
<defs>
<linearGradient id="paint0_linear_562_12537" x1="103.988" y1="532.753" x2="4.56184" y2="357.047" gradientUnits="userSpaceOnUse">
<stop stop-color="#C2CCED"/>
<stop offset="0.0512" stop-color="#C4CEED"/>
<stop offset="1" stop-color="#E4EBF0"/>
</linearGradient>
<linearGradient id="paint1_linear_562_12537" x1="330.698" y1="334.35" x2="257.879" y2="202.957" gradientUnits="userSpaceOnUse">
<stop stop-color="#C2CCED"/>
<stop offset="0.2728" stop-color="#DFE4F6"/>
<stop offset="0.6118" stop-color="white"/>
<stop offset="1" stop-color="#E4EBF0"/>
</linearGradient>
<linearGradient id="paint2_linear_562_12537" x1="-0.141021" y1="220.482" x2="78.3637" y2="501.97" gradientUnits="userSpaceOnUse">
<stop stop-color="#C2CCED"/>
<stop offset="0.0512" stop-color="#C4CEED"/>
<stop offset="1" stop-color="#E4EBF0"/>
</linearGradient>
<linearGradient id="paint3_linear_562_12537" x1="306.734" y1="388.332" x2="235.119" y2="294.6" gradientUnits="userSpaceOnUse">
<stop stop-color="#D6E7FA"/>
<stop offset="1" stop-color="#749DED"/>
</linearGradient>
<linearGradient id="paint4_linear_562_12537" x1="413.287" y1="306.922" x2="341.672" y2="213.189" gradientUnits="userSpaceOnUse">
<stop stop-color="#D6E7FA"/>
<stop offset="1" stop-color="#749DED"/>
</linearGradient>
<linearGradient id="paint5_linear_562_12537" x1="367.059" y1="342.242" x2="295.444" y2="248.51" gradientUnits="userSpaceOnUse">
<stop stop-color="#D6E7FA"/>
<stop offset="1" stop-color="#749DED"/>
</linearGradient>
<linearGradient id="paint6_linear_562_12537" x1="244.018" y1="195.503" x2="387.507" y2="347.529" gradientUnits="userSpaceOnUse">
<stop stop-color="#475B80"/>
<stop offset="0.6559" stop-color="#2C3D51"/>
<stop offset="1" stop-color="#21313E"/>
</linearGradient>
<linearGradient id="paint7_linear_562_12537" x1="265.658" y1="261.242" x2="332.733" y2="245.22" gradientUnits="userSpaceOnUse">
<stop stop-color="#475B80"/>
<stop offset="0.6559" stop-color="#2C3D51"/>
<stop offset="1" stop-color="#21313E"/>
</linearGradient>
<linearGradient id="paint8_linear_562_12537" x1="310.128" y1="146.185" x2="304.46" y2="257.171" gradientUnits="userSpaceOnUse">
<stop stop-color="white" stop-opacity="0.3"/>
<stop offset="1" stop-color="white" stop-opacity="0"/>
</linearGradient>
</defs>
</svg>
