<svg width="65" height="64" viewBox="0 0 65 64" fill="none" xmlns="http://www.w3.org/2000/svg">
<g id="event_note" clip-path="url(#clip0_567_12733)">
<path id="Vector" d="M45.8333 26.667H19.1667V32.0003H45.8333V26.667ZM51.1667 8.00033H48.5V2.66699H43.1667V8.00033H21.8333V2.66699H16.5V8.00033H13.8333C10.8733 8.00033 8.52667 10.4003 8.52667 13.3337L8.5 50.667C8.5 53.6003 10.8733 56.0003 13.8333 56.0003H51.1667C54.1 56.0003 56.5 53.6003 56.5 50.667V13.3337C56.5 10.4003 54.1 8.00033 51.1667 8.00033ZM51.1667 50.667H13.8333V21.3337H51.1667V50.667ZM37.8333 37.3337H19.1667V42.667H37.8333V37.3337Z" fill="#ED1D25"/>
</g>
<defs>
<clipPath id="clip0_567_12733">
<rect width="64" height="64" fill="white" transform="translate(0.5)"/>
</clipPath>
</defs>
</svg>
