<svg xmlns="http://www.w3.org/2000/svg" width="60" height="60" viewBox="0 0 60 60" fill="none">
<path fill-rule="evenodd" clip-rule="evenodd" d="M8.31428 13.8503C8.19124 14.2276 2 46.1687 2 46.4265C2 46.512 5.22763 46.5482 9.17248 46.507L16.345 46.4321L23.1861 30.0729C26.9488 21.0752 30.0273 13.6654 30.0273 13.6068C30.0273 13.5479 25.1677 13.5 19.2281 13.5C10.8365 13.5 8.40313 13.5782 8.31428 13.8503ZM36.3335 13.8503C36.1962 14.2436 30.0273 46.0644 30.0273 46.38C30.0273 46.491 33.2552 46.5482 37.2007 46.507L44.374 46.4321L51.2143 30.0364C54.9764 21.0189 58.0547 13.609 58.0547 13.5704C58.0547 13.5317 53.195 13.5 47.2555 13.5C38.868 13.5 36.4288 13.5782 36.3335 13.8503Z" fill="#B7203F"/>
</svg>