<svg width="65" height="64" viewBox="0 0 65 64" fill="none" xmlns="http://www.w3.org/2000/svg">
<g id="timelapse" clip-path="url(#clip0_567_12705)">
<path id="Vector" d="M43.8068 20.6666C40.6868 17.5466 36.6068 15.9733 32.5002 15.9733V31.9733L21.1935 43.28C27.4335 49.52 37.5668 49.52 43.8335 43.28C50.0735 37.04 50.0735 26.9066 43.8068 20.6666ZM32.5002 5.30664C17.7802 5.30664 5.8335 17.2533 5.8335 31.9733C5.8335 46.6933 17.7802 58.64 32.5002 58.64C47.2202 58.64 59.1668 46.6933 59.1668 31.9733C59.1668 17.2533 47.2202 5.30664 32.5002 5.30664ZM32.5002 53.3066C20.7135 53.3066 11.1668 43.76 11.1668 31.9733C11.1668 20.1866 20.7135 10.64 32.5002 10.64C44.2868 10.64 53.8335 20.1866 53.8335 31.9733C53.8335 43.76 44.2868 53.3066 32.5002 53.3066Z" fill="#ED1D25"/>
</g>
<defs>
<clipPath id="clip0_567_12705">
<rect width="64" height="64" fill="white" transform="translate(0.5)"/>
</clipPath>
</defs>
</svg>
