<svg width="16" height="16" viewBox="0 0 16 16" fill="none" xmlns="http://www.w3.org/2000/svg">
<g clip-path="url(#clip0_521_7525)">
<path d="M13.9998 2H1.99984C1.2665 2 0.666504 2.6 0.666504 3.33333V11.3333C0.666504 12.0667 1.2665 12.6667 1.99984 12.6667H5.33317V13.3333C5.33317 13.7 5.63317 14 5.99984 14H9.99984C10.3665 14 10.6665 13.7 10.6665 13.3333V12.6667H13.9998C14.7332 12.6667 15.3265 12.0667 15.3265 11.3333L15.3332 3.33333C15.3332 2.59333 14.7332 2 13.9998 2ZM13.3332 11.3333H2.6665C2.29984 11.3333 1.99984 11.0333 1.99984 10.6667V4C1.99984 3.63333 2.29984 3.33333 2.6665 3.33333H13.3332C13.6998 3.33333 13.9998 3.63333 13.9998 4V10.6667C13.9998 11.0333 13.6998 11.3333 13.3332 11.3333ZM9.65317 7.91333L6.99984 9.43333C6.55317 9.68667 5.99984 9.36 5.99984 8.85333V5.81333C5.99984 5.3 6.55317 4.98 6.99984 5.23333L9.65317 6.75333C10.0998 7.01333 10.0998 7.65333 9.65317 7.91333Z" fill="#060606"/>
</g>
<defs>
<clipPath id="clip0_521_7525">
<rect width="16" height="16" fill="white"/>
</clipPath>
</defs>
</svg>
