<svg width="1920" height="568" viewBox="0 0 1920 568" fill="none" xmlns="http://www.w3.org/2000/svg">
<g opacity="0.1">
<path d="M119.47 775.768C151.622 738.582 208.595 738.872 252.015 758.209C295.434 777.546 331.22 811.657 372.291 836.113C482.32 901.515 631.101 887.572 730.543 802.467C762.368 775.212 789.131 741.8 820.8 714.22C852.418 686.726 891.395 664.661 932.082 666.891C990.642 669.988 1035.75 721.287 1065.16 774.302C1094.58 827.317 1116.01 887.099 1158.69 928.802C1214.74 983.597 1299.1 996.932 1375.23 983.026C1451.36 969.12 1521.81 931.343 1590.83 894" stroke="#FF4DC4" stroke-miterlimit="10"/>
<path d="M119.383 770.246C152.206 733.692 208.956 733.965 252.564 753.182C271.457 761.522 288.85 772.577 305.765 784.628C328.01 800.435 349.386 817.702 372.277 832.031C419.006 861.253 472.445 876.663 527.018 877.27C569.226 877.729 611.339 870.334 650.731 854.801C678.804 843.817 705.231 828.362 728.969 808.629C739.573 799.813 749.694 790.244 759.608 780.435C779.727 760.525 798.933 739.606 820.396 721.544C844.732 701.003 873.196 684.084 903.431 679.043C912.875 677.451 922.375 676.939 931.999 677.782C972.227 681.369 1005.33 708.063 1032.33 741.484C1044.01 755.885 1054.56 771.593 1063.82 787.118C1074.15 804.559 1083.78 822.397 1093.53 839.84C1112.71 874.076 1132.41 906.869 1160.36 931.077C1178.52 946.897 1199.15 957.787 1221.7 965.275C1267.37 980.248 1321.39 979.827 1372.78 968.765C1386.82 965.717 1400.82 961.949 1414.71 957.769C1476.37 938.852 1535.72 909.945 1593.1 883.359" stroke="#F552C5" stroke-miterlimit="10"/>
<path d="M119.382 764.775C152.824 728.94 209.402 729.11 253.199 748.206C272.143 756.461 289.621 767.567 306.572 779.755C328.715 795.733 349.799 813.293 372.47 828.189C418.447 858.476 470.589 875.675 524.978 877.568C567.069 879.005 608.946 872.983 648.533 859.079C676.848 849.054 703.501 834.199 727.567 814.893C738.291 806.265 748.583 796.798 758.584 787.041C778.909 767.371 798.424 746.52 820.129 728.834C844.792 708.72 873.327 692.658 903.738 688.886C913.15 687.74 922.581 687.537 932.001 688.723C971.583 693.787 1003.4 721.464 1030.32 754.833C1042.03 769.372 1052.87 784.787 1062.47 799.933C1073.33 816.875 1083.54 834.128 1093.87 850.403C1114.15 882.612 1134.42 912.488 1161.94 933.301C1179.74 946.807 1199.52 955.213 1221.2 960.44C1265.23 970.943 1318.6 967.111 1370.16 954.402C1384.37 950.873 1398.43 946.796 1412.48 942.359C1475.2 922.444 1536.66 895.261 1594.96 872.6" stroke="#EB57C7" stroke-miterlimit="10"/>
<path d="M119.346 759.167C153.408 724.05 209.78 723.981 253.713 743.042C272.657 751.297 290.273 762.368 307.172 774.642C329.264 790.707 350.144 808.61 372.421 823.97C417.699 855.238 468.527 874.447 522.783 877.541C564.671 879.905 606.433 875.443 646.179 863.031C674.773 854.103 701.651 839.848 725.957 820.918C736.802 812.479 747.13 803.149 757.387 793.545C777.971 774.028 797.83 753.382 819.69 736.021C844.594 716.284 873.286 701.13 903.839 698.49C913.269 697.704 922.496 697.845 931.796 699.426C970.646 705.915 1001.27 734.625 1028.19 767.994C1039.9 782.533 1050.92 797.828 1061.09 812.611C1072.43 829.14 1083.29 845.499 1094.13 860.915C1115.5 891.096 1136.51 918.157 1163.58 935.44C1181.09 946.683 1199.86 952.502 1220.62 955.554C1262.9 961.758 1315.68 954.43 1367.51 939.902C1381.74 935.927 1396.07 931.421 1410.35 926.777C1474.19 905.777 1537.8 880.457 1596.93 861.669" stroke="#E15DC8" stroke-miterlimit="10"/>
<path d="M119.259 753.645C153.992 719.16 210.141 719.075 254.263 738.016C273.344 746.235 290.959 757.307 307.757 769.753C329.746 785.989 350.472 804.15 372.306 820.061C416.883 852.308 466.449 873.442 520.434 877.772C562.206 881.114 603.767 878.162 643.673 867.241C672.544 859.41 699.647 845.754 724.195 827.201C735.212 818.864 745.66 809.722 756.004 800.169C776.794 780.892 796.962 760.313 819.149 743.38C844.329 724.157 873.109 709.637 903.872 708.403C913.183 708.011 922.429 708.512 931.439 710.386C969.641 718.353 998.981 748.044 1025.76 781.448C1037.42 796.072 1048.82 811.126 1059.33 825.531C1071.07 841.596 1082.64 857.335 1094.06 871.583C1116.57 899.651 1138.28 923.982 1164.84 937.819C1182.07 946.8 1199.81 950.033 1219.8 950.875C1260.43 952.609 1312.43 941.905 1364.65 925.746C1378.97 921.239 1393.44 916.475 1407.97 911.624C1472.86 889.626 1538.54 866.117 1598.65 851.167" stroke="#D762CA" stroke-miterlimit="10"/>
<path d="M119.257 748.174C154.525 714.357 210.587 714.22 254.897 733.04C274.03 741.174 291.731 752.296 308.477 764.828C330.415 781.15 350.886 799.741 372.378 816.03C416.204 849.343 464.558 872.317 518.359 877.933C560.014 882.253 601.34 880.674 641.44 871.382C670.641 864.561 697.831 851.539 722.758 833.329C733.895 825.179 744.515 816.14 754.945 806.638C776.078 787.566 796.504 767.14 818.846 750.533C844.268 731.686 873.206 718.075 904.196 718.023C913.525 717.991 922.566 718.836 931.457 721.104C968.927 730.497 997.121 761.136 1023.85 794.626C1035.6 809.301 1047.19 824.234 1058.18 838.226C1070.39 853.877 1082.56 868.809 1094.54 882.111C1118.14 908.152 1140.6 929.668 1166.7 939.974C1183.73 946.743 1200.37 947.339 1219.57 945.971C1258.51 943.32 1309.92 929.119 1362.35 911.228C1376.84 906.24 1391.44 901.081 1406.12 895.972C1472.12 872.891 1539.86 851.192 1600.98 840.218" stroke="#CD67CB" stroke-miterlimit="10"/>
<path d="M119.222 742.566C155.109 709.467 211.051 709.143 255.446 728.013C274.579 736.147 292.417 747.235 309.112 759.853C331.034 776.398 351.265 795.195 372.45 812C415.577 846.293 462.617 871.277 516.199 878.043C557.737 883.341 598.862 883.272 639.121 875.471C668.6 869.748 696.015 857.325 721.183 839.491C732.356 831.479 743.096 822.628 753.783 813.279C775.175 794.36 795.858 774.088 818.442 757.857C844.105 739.387 873.166 726.547 904.366 727.901C913.663 728.315 922.636 729.469 931.323 732.081C968.146 742.951 995.057 774.571 1021.79 808.061C1033.53 822.736 1045.45 837.514 1056.78 851.128C1069.47 866.366 1082.24 880.489 1094.92 892.812C1119.53 916.774 1142.98 935.629 1168.4 942.386C1185.29 946.857 1200.91 944.867 1219.15 941.411C1256.39 934.375 1307.15 916.763 1359.89 897.19C1374.41 891.757 1389.21 886.253 1404.13 880.938C1471.19 856.859 1541.13 836.936 1603.14 829.749" stroke="#C36CCD" stroke-miterlimit="10"/>
<path d="M119.22 737.095C155.727 704.714 211.497 704.288 255.995 722.987C275.265 731.085 293.104 742.173 309.833 754.928C331.704 771.559 351.644 790.649 372.471 808.055C414.847 843.414 460.675 870.237 513.987 878.24C555.408 884.515 596.333 885.956 636.665 879.596C666.422 874.968 694.063 863.145 719.472 845.688C730.765 837.864 741.677 829.115 752.451 819.818C774.048 801.138 795.041 780.934 817.866 765.079C843.856 747.037 872.902 735.003 904.416 737.59C913.645 738.314 922.499 739.862 931.118 742.783C967.209 755.079 992.923 787.732 1019.57 821.171C1031.35 835.984 1043.5 850.555 1055.23 863.704C1068.39 878.529 1081.85 891.895 1095.01 903.221C1120.7 925.156 1145.09 941.075 1169.73 944.457C1186.51 946.768 1200.94 942.089 1218.39 936.423C1253.99 924.916 1303.97 903.929 1357.06 882.588C1371.75 876.674 1386.67 870.775 1401.83 865.254C1470 840.09 1541.96 822.065 1604.94 818.716" stroke="#B972CE" stroke-miterlimit="10"/>
<path d="M119.133 731.573C156.311 699.825 211.858 699.381 256.545 717.96C275.865 725.973 293.79 737.112 310.468 749.953C332.236 766.755 352.023 786.103 372.457 803.973C414.133 840.312 458.699 869.061 511.827 878.35C553.131 885.603 593.855 888.554 634.347 883.685C664.433 880.069 692.161 868.88 717.949 851.764C729.362 844.128 740.36 835.43 751.306 826.236C773.161 807.709 794.498 787.71 817.478 772.181C843.71 754.514 872.964 743.303 904.516 747.194C913.713 748.363 922.5 750.221 930.914 753.485C966.358 767.258 990.703 800.842 1017.43 834.332C1029.21 849.145 1041.61 863.509 1053.84 876.382C1067.49 890.794 1081.49 903.438 1095.32 913.647C1122.1 933.555 1147.51 946.589 1171.42 946.509C1188.19 946.488 1201.37 939.206 1217.95 931.502C1251.9 915.525 1301.18 891.213 1354.58 868.19C1369.3 861.83 1384.43 855.588 1399.79 849.723C1469.02 823.561 1543.09 807.26 1606.99 807.836" stroke="#AF77CF" stroke-miterlimit="10"/>
<path d="M119.183 726.017C156.981 694.986 212.407 694.355 257.231 712.898C276.551 720.911 294.527 731.964 311.24 744.942C332.957 761.831 352.489 781.608 372.53 799.943C413.454 837.347 456.672 867.97 509.666 878.46C550.853 886.691 591.377 891.152 632.028 887.774C662.392 885.255 690.345 874.665 716.374 857.926C727.908 850.478 739.027 841.969 750.145 832.877C772.293 814.641 793.852 794.658 817.16 779.556C843.719 762.318 873.01 751.827 904.772 757.123C913.901 758.601 922.518 760.939 930.865 764.513C965.576 779.712 988.724 814.328 1015.45 847.819C1027.32 862.682 1039.9 876.926 1052.53 889.335C1066.71 903.247 1081.26 915.169 1095.65 924.434C1123.44 942.262 1150.05 952.292 1173.07 949.008C1189.84 946.654 1201.72 936.855 1217.52 926.941C1249.78 906.579 1298.46 878.771 1352.02 854.102C1366.84 847.209 1382.16 840.624 1397.72 834.638C1468.01 807.477 1544.19 792.902 1609.02 797.401" stroke="#A57CD1" stroke-miterlimit="10"/>
<path d="M119.097 720.495C157.428 690.131 212.769 689.449 257.78 707.871C277.152 715.798 295.214 726.903 311.825 740.053C333.439 757.113 352.817 777.148 372.551 795.998C412.776 834.383 454.731 866.93 507.541 878.707C548.611 887.916 589.02 893.938 629.744 892.001C660.387 890.578 688.565 880.588 714.835 864.225C726.49 856.966 737.781 848.559 748.984 839.518C771.39 821.435 793.293 801.657 816.756 786.881C843.505 770.104 872.97 760.299 904.994 766.915C914.09 768.839 922.64 771.486 930.782 775.403C964.846 792.079 986.762 827.592 1013.35 861.117C1025.17 876.066 1038.13 890.069 1051.1 902.099C1065.67 915.547 1080.99 926.764 1095.9 934.946C1124.79 950.747 1152.57 957.634 1174.71 951.146C1191.48 946.236 1202.2 934.11 1217.08 922.021C1247.69 897.188 1295.68 866.055 1349.51 839.567C1364.49 832.194 1379.88 825.299 1395.73 819.021C1467.13 790.776 1545.41 778.149 1611.21 786.487" stroke="#9B81D2" stroke-miterlimit="10"/>
<path d="M119.009 714.973C158.012 685.241 213.129 684.543 258.243 702.794C277.752 710.686 295.814 721.79 312.459 735.077C334.023 752.223 353.11 772.551 372.537 791.917C412.011 831.367 452.754 865.753 505.294 878.766C546.248 888.953 586.455 896.485 627.339 896.039C658.26 895.713 686.663 886.323 713.226 870.25C725.001 863.179 736.378 854.823 747.753 845.884C770.417 827.955 792.526 808.416 816.282 793.931C843.272 777.531 872.86 768.497 905.095 776.518C914.123 778.752 922.64 781.845 930.491 786.054C963.823 804.156 984.542 840.702 1011.13 874.227C1023.03 889.228 1036.18 903.109 1049.63 914.726C1064.68 927.761 1080.55 938.256 1096.08 945.407C1125.96 959.129 1154.89 962.737 1176.21 953.319C1192.94 945.94 1202.39 931.434 1216.44 917.221C1245.41 887.918 1292.61 853.408 1346.83 825.29C1361.85 817.471 1377.5 810.147 1393.44 803.696C1465.91 774.453 1546.31 763.552 1613.03 775.814" stroke="#9187D4" stroke-miterlimit="10"/>
<path d="M119.059 709.416C158.681 680.403 213.678 679.516 258.929 697.732C278.438 705.624 296.637 716.694 313.231 730.067C334.778 747.436 353.575 768.056 372.609 787.886C411.383 828.316 450.864 864.628 503.219 878.927C544.056 890.092 584.063 899.134 625.106 900.18C656.305 900.95 684.847 892.108 711.737 876.463C723.548 869.529 735.131 861.413 746.592 852.525C769.462 834.836 791.88 815.364 815.826 801.341C843.144 785.369 872.82 776.969 905.265 786.396C914.311 788.99 922.624 792.426 930.356 797.031C963.041 816.61 982.478 854.137 1009.02 887.748C1020.92 902.749 1034.31 916.424 1048.18 927.714C1063.71 940.336 1080.18 950.022 1096.32 956.142C1127.24 967.923 1157.19 968.063 1177.74 955.629C1194.4 945.644 1202.68 928.809 1215.81 912.421C1243.05 878.596 1289.69 840.727 1344.13 810.876C1359.23 802.525 1374.94 794.892 1391.27 788.2C1464.84 757.873 1547.3 748.782 1615 764.882" stroke="#878CD5" stroke-miterlimit="10"/>
<path d="M118.972 703.894C159.214 675.599 214.039 674.61 259.427 692.791C278.987 700.597 297.272 711.718 313.815 725.177C335.311 742.632 353.903 763.596 372.544 783.891C410.619 825.3 448.785 863.623 500.922 879.072C541.556 891.164 581.448 901.767 622.651 904.304C654.213 906.222 682.894 897.929 710.026 882.66C721.957 875.915 733.712 867.901 745.345 859.115C768.559 841.63 791.235 822.312 815.422 808.666C842.981 793.07 872.78 785.441 905.349 796.223C914.277 799.211 922.607 803.008 930.136 807.956C962.088 828.961 980.327 867.521 1006.78 901.081C1018.63 916.168 1032.4 929.602 1046.62 940.513C1062.62 952.722 1079.63 961.685 1096.39 966.774C1128.32 976.477 1159.23 973.235 1179.14 957.974C1195.63 945.331 1202.77 926.305 1215.12 907.707C1240.67 869.497 1286.67 828.218 1341.41 796.685C1356.67 787.853 1372.51 779.825 1388.93 772.962C1463.57 741.636 1548.09 734.356 1616.76 754.295" stroke="#7D91D7" stroke-miterlimit="10"/>
<path d="M118.971 698.423C159.884 670.761 214.486 669.755 260.063 687.816C279.76 695.587 298.045 706.708 314.537 720.253C335.93 737.88 354.369 759.101 372.652 779.997C409.975 822.473 446.93 862.634 498.882 879.371C539.4 892.44 579.126 904.69 620.453 908.582C652.293 911.597 681.2 903.902 708.624 888.925C720.727 882.281 732.517 874.404 744.321 865.721C767.742 848.476 790.727 829.225 815.155 815.955C843.042 800.787 872.928 793.793 905.708 805.98C914.654 809.328 922.78 813.469 930.19 818.812C961.546 841.208 978.451 880.836 1004.91 914.396C1016.84 929.534 1030.79 942.847 1045.49 953.345C1061.98 965.14 1079.67 973.347 1096.95 977.354C1129.98 985.03 1161.72 978.441 1181.03 960.266C1197.28 944.914 1203.41 923.662 1214.89 903.026C1238.7 860.295 1284.09 815.742 1339.09 782.389C1354.4 773.112 1370.44 764.74 1387.15 757.584C1462.9 725.175 1549.57 719.757 1619.16 743.62" stroke="#7396D8" stroke-miterlimit="10"/>
<path d="M118.935 692.815C160.382 665.82 214.949 664.677 260.577 682.652C280.274 690.423 298.696 701.509 315.171 715.277C336.514 732.99 354.696 754.641 372.638 775.916C409.261 819.371 444.868 861.407 496.635 879.43C537.036 893.477 576.561 907.237 618.048 912.62C650.167 916.732 679.212 909.586 706.963 895.036C719.187 888.581 731.097 880.892 742.988 872.26C766.666 855.168 789.995 836.122 814.579 823.177C842.707 808.386 872.63 802.112 905.706 815.755C914.671 819.464 922.678 823.999 929.883 829.686C960.506 853.508 976.266 894.083 1002.58 927.678C1014.47 942.901 1028.8 955.973 1043.84 966.093C1060.77 977.338 1079.04 984.96 1096.94 987.936C1131 993.67 1163.48 983.683 1182.4 962.474C1198.34 944.499 1203.47 921.02 1214.17 898.175C1236.34 850.973 1280.94 803.044 1336.34 768.061C1351.72 758.251 1367.97 749.536 1384.87 742.26C1461.68 708.852 1550.47 705.159 1620.98 732.946" stroke="#699CD9" stroke-miterlimit="10"/>
<path d="M118.934 687.344C161.001 661.067 215.396 659.822 261.212 677.676C280.96 685.362 299.468 696.499 315.892 710.352C337.133 728.237 355.076 750.095 372.71 771.885C408.583 816.406 442.927 860.367 494.475 879.54C534.759 894.565 574.169 909.886 615.729 916.71C648.075 922.004 677.396 915.371 705.389 901.198C717.733 894.931 729.73 887.293 741.878 878.815C765.763 861.962 789.401 842.984 814.226 830.416C842.544 816.087 872.692 810.412 905.928 825.547C914.825 829.565 922.713 834.495 929.799 840.576C959.776 865.875 974.253 907.433 1000.57 941.027C1012.54 956.302 1027.06 969.253 1042.58 978.959C1059.99 989.791 1078.86 996.605 1097.37 998.55C1132.43 1002.21 1165.75 988.872 1184.15 964.8C1199.79 944.202 1203.84 918.446 1213.79 893.529C1234.09 841.839 1278.27 790.516 1333.84 753.887C1349.34 743.682 1365.71 734.572 1382.81 726.952C1460.73 692.46 1551.58 690.578 1623.02 722.289" stroke="#5FA1DB" stroke-miterlimit="10"/>
<path d="M118.847 681.822C161.533 656.263 215.757 654.916 261.761 672.649C281.646 680.3 300.154 691.437 316.528 705.377C337.751 723.485 355.455 745.549 372.731 767.94C407.904 813.442 440.985 859.327 492.349 879.787C532.516 895.791 571.675 912.707 613.445 920.936C646.155 927.378 675.615 921.294 703.849 907.497C716.314 901.418 728.483 893.883 740.717 885.456C764.859 868.757 788.755 849.932 813.822 837.74C842.467 823.839 872.789 818.849 906.063 835.288C914.979 839.666 922.748 844.99 929.681 851.33C958.925 878.054 972.204 920.645 998.522 954.239C1010.49 969.514 1025.25 982.259 1041.2 991.638C1059.08 1002.06 1078.59 1008.2 1097.63 1009.06C1133.78 1010.69 1167.74 994.13 1185.7 966.887C1200.99 943.752 1204.14 915.599 1213.26 888.557C1231.87 832.483 1275.4 777.749 1331.23 739.301C1346.82 728.564 1363.39 719.111 1380.69 711.369C1459.66 675.879 1552.58 675.809 1625.04 711.272" stroke="#55A6DC" stroke-miterlimit="10"/>
<path d="M118.811 676.215C162.168 651.288 216.134 649.787 262.361 667.537C282.247 675.188 300.806 686.239 317.214 700.315C338.386 718.509 355.834 741.003 372.769 763.773C407.19 810.34 439.06 858.065 490.154 879.76C530.204 896.742 569.111 915.253 611.092 924.889C644.079 932.427 673.679 926.891 702.291 913.436C714.877 907.546 727.166 900.199 739.486 891.823C763.972 875.328 788.126 856.657 813.434 844.842C842.32 831.317 872.816 827.013 906.25 844.943C915.046 849.715 922.697 855.435 929.562 862.083C958.16 890.285 970.07 933.806 996.388 967.401C1008.39 982.812 1023.39 995.35 1039.73 1004.27C1058.1 1014.27 1078.2 1019.61 1097.85 1019.44C1135.05 1019.12 1169.74 999.165 1187.26 968.974C1202.19 943.302 1204.47 912.888 1212.73 883.585C1229.69 823.041 1272.44 764.931 1328.66 724.852C1344.33 713.583 1361.06 703.872 1378.64 695.839C1458.73 659.264 1553.8 661.056 1627.09 700.393" stroke="#4BABDE" stroke-miterlimit="10"/>
<path d="M118.81 670.744C162.701 646.484 216.581 644.932 262.911 662.51C282.847 670.075 301.492 681.177 317.935 695.391C339.005 713.757 356.3 736.508 372.79 759.828C406.512 807.375 437.068 857.111 488.028 880.007C527.962 897.967 566.754 918.04 608.722 929.064C641.937 937.785 671.812 932.763 700.752 919.735C713.372 913.982 725.833 906.737 738.411 898.515C763.104 882.26 787.566 863.656 813.115 852.217C842.33 839.12 872.913 835.45 906.557 854.786C915.372 859.918 922.904 866.033 929.479 872.974C957.344 902.601 968.057 947.155 994.323 980.836C1006.33 996.248 1021.65 1008.63 1038.42 1017.22C1057.26 1026.81 1078 1031.47 1098.18 1030.22C1136.41 1027.97 1171.8 1004.7 1188.96 971.387C1203.46 943.127 1204.88 910.451 1212.3 879.025C1227.62 814.01 1269.67 752.575 1326.16 710.677C1341.95 699.014 1358.85 688.822 1376.53 680.616C1457.68 643.044 1554.87 646.56 1629.17 689.873" stroke="#41B1DF" stroke-miterlimit="10"/>
<path d="M118.723 665.222C163.234 641.68 216.942 640.026 263.409 657.569C283.482 665.099 302.127 676.202 318.519 690.501C339.538 708.953 356.628 732.048 372.725 755.833C405.696 804.445 435.04 856.02 485.73 880.152C525.547 899.09 564.036 920.844 606.266 933.188C639.708 943.092 669.859 938.583 699.04 925.932C711.781 920.367 724.414 913.225 737.078 905.053C762.029 888.952 786.834 870.553 812.539 859.439C841.995 846.718 872.803 843.648 906.555 864.561C915.303 870.003 922.716 876.512 929.172 883.848C956.39 914.953 965.872 960.403 992.087 994.169C1004.18 1009.63 1019.69 1021.89 1036.85 1030.02C1056.09 1039.14 1077.5 1043.05 1098.3 1040.77C1137.63 1036.49 1173.66 1009.99 1190.41 973.646C1204.56 942.849 1205.07 907.775 1211.67 874.225C1225.21 804.774 1266.75 739.894 1323.49 696.4C1339.37 684.205 1356.41 673.755 1374.39 665.257C1456.65 626.6 1555.85 632.014 1631.12 679.164" stroke="#37B6E1" stroke-miterlimit="10"/>
<path d="M118.773 659.665C183.422 626.932 265.245 637.48 319.291 685.491C383.021 742.061 408.327 842.441 483.707 880.227C523.407 900.143 561.695 923.407 604.085 937.243C652.604 953.098 693.936 938.023 736.019 911.522C790.048 877.47 843.319 832.376 906.828 874.267C952.72 904.503 957.726 965.678 990.039 1007.38C1015.6 1040.29 1058.28 1057.56 1098.69 1051.25C1139.11 1044.94 1175.73 1015.3 1192.13 975.835C1205.93 942.501 1205.49 905.115 1211.31 869.356C1226.51 774.826 1289.12 689.432 1372.44 649.777C1455.75 610.122 1557.15 617.312 1633.26 668.336" stroke="#2DBBE2" stroke-miterlimit="10"/>
<path d="M118.051 669.477C180.759 641.176 260.976 653.444 315.155 700.254C342.313 723.641 363.013 754.356 383.676 784.351C404.771 815.184 425.606 845.281 453.204 866.952C462.111 873.886 471.701 880.062 482.196 884.914C521.702 903.201 559.899 924.665 602.321 938.055C650.392 953.294 691.437 939.677 732.929 915.734C742.48 910.249 751.962 904.489 761.478 898.866C789.463 882.36 817.54 867.654 847.675 868.257C864.603 868.56 882.129 873.527 900.623 885.47C946.271 914.746 953.34 972.261 985.711 1010.74C989.999 1015.85 994.765 1020.55 999.838 1024.74C1025.2 1045.66 1059.48 1055.13 1092.36 1048.99C1131.78 1041.62 1167.59 1011.97 1184.13 973.049C1198.17 940.092 1198.95 903.2 1205.63 867.951C1217.14 807.185 1248.23 750.28 1291.46 707.586C1314.57 684.802 1341.19 666.089 1370.06 652.787C1422.87 628.6 1482.65 622.998 1539.05 634.814C1571.42 641.634 1602.64 654.29 1630.62 672.581" stroke="#33B4E3" stroke-miterlimit="10"/>
<path d="M117.415 679.34C178.097 655.419 256.794 669.459 311.192 715.119C338.52 738.025 359.816 767.349 380.954 795.764C402.626 824.847 423.917 853.005 451.767 873.08C460.707 879.567 470.295 885.16 480.772 889.652C520.17 906.362 558.137 926.06 600.506 938.953C647.992 953.611 688.939 941.332 729.753 919.895C739.22 914.942 748.516 909.885 757.897 904.881C785.34 890.263 812.514 877.464 842.086 879.011C858.741 879.967 876.08 885.054 894.383 896.535C939.737 924.938 948.92 978.707 981.349 1013.96C985.669 1018.63 990.382 1022.83 995.437 1026.66C1020.59 1045.59 1054.04 1053.52 1086.04 1046.5C1124.46 1038.08 1159.42 1008.5 1176.18 970.178C1190.55 937.647 1192.33 901.232 1200.08 866.512C1213.14 806.666 1245.19 750.685 1288.75 709.002C1312.19 686.645 1338.95 668.48 1367.96 655.726C1420.79 632.483 1480.25 627.619 1536.73 639.487C1569.1 646.307 1600.2 658.774 1628.2 676.842" stroke="#38ADE5" stroke-miterlimit="10"/>
<path d="M116.779 689.204C175.521 669.714 252.663 685.388 307.194 729.847C334.657 752.136 356.532 780.291 378.333 807.007C400.617 834.475 422.467 860.521 450.432 879.035C459.456 884.99 469.077 890.138 479.449 894.219C518.739 909.351 556.58 927.112 598.931 939.644C646.02 953.601 686.629 942.866 726.851 923.987C736.097 919.6 745.344 915.213 754.453 910.86C781.302 898.217 807.676 887.153 836.633 889.731C852.982 891.203 870.218 896.462 888.28 907.566C933.391 935.009 944.5 985.153 977.209 1017.2C981.562 1021.42 986.257 1025.26 991.294 1028.73C1016.23 1045.68 1048.86 1052.07 1080.06 1044.23C1117.52 1034.87 1151.58 1005.23 1168.57 967.511C1183.23 935.271 1186.18 899.435 1194.8 865.226C1209.49 806.353 1242.33 751.191 1286.31 710.57C1310.07 688.642 1336.97 671.025 1365.98 658.854C1418.83 636.554 1477.97 632.429 1534.45 644.296C1566.68 651.151 1597.83 663.532 1625.95 681.205" stroke="#3EA6E6" stroke-miterlimit="10"/>
<path d="M116.143 699.067C172.996 683.922 248.48 701.403 303.231 744.712C330.915 766.434 353.334 793.284 375.696 818.472C398.643 844.24 420.915 868.209 449.081 885.214C458.137 890.723 467.705 895.373 478.11 899.008C517.241 912.649 554.904 928.558 597.288 940.644C643.843 953.934 684.251 944.709 723.847 928.25C732.958 924.481 742.069 920.712 751.043 916.977C777.35 906.222 802.872 896.978 831.216 900.588C847.344 902.626 864.238 908.264 882.161 918.82C927.028 945.303 940.115 991.736 972.968 1020.61C977.302 1024.47 982.03 1027.87 987.013 1030.84C1011.74 1045.79 1043.45 1050.59 1073.86 1041.93C1110.32 1031.52 1143.44 1001.89 1160.8 964.741C1175.7 932.878 1179.86 897.535 1189.42 863.889C1205.71 805.851 1239.47 751.698 1283.91 712.053C1308 690.553 1335.08 673.621 1364.11 661.81C1416.98 640.453 1475.84 636.981 1532.31 649.071C1564.54 655.926 1595.57 668.119 1623.7 685.569" stroke="#43A0E8" stroke-miterlimit="10"/>
<path d="M115.473 708.793C170.385 698.08 244.263 717.281 299.198 759.303C326.966 780.493 350.101 806.141 373.04 829.576C396.514 853.679 419.293 875.624 447.711 891.032C456.851 896.009 466.452 900.213 476.753 903.437C515.775 915.5 553.261 929.558 595.591 941.147C641.698 953.821 681.872 945.969 720.824 932.153C729.852 928.916 738.776 925.85 747.564 922.82C773.242 913.902 798.034 906.667 825.815 911.222C841.722 913.827 858.393 919.448 876.109 929.764C920.58 955.546 935.882 998.061 968.793 1023.71C973.161 1027.13 977.921 1030.08 982.749 1032.72C1007.13 1045.72 1038.15 1048.95 1067.68 1039.41C1103.23 1027.99 1135.46 998.303 1152.98 961.835C1168.12 930.348 1173.46 895.584 1183.93 862.364C1201.85 805.298 1236.49 752.017 1281.26 713.383C1305.68 692.31 1332.89 675.926 1361.92 664.699C1414.81 644.285 1473.35 641.551 1529.9 653.692C1562 660.582 1592.99 672.638 1621.24 689.693" stroke="#4999E9" stroke-miterlimit="10"/>
<path d="M114.837 718.657C167.809 712.374 240.132 733.21 295.149 774.117C323.052 794.689 346.818 819.083 370.318 840.99C394.454 863.393 417.656 883.261 446.274 897.16C455.498 901.605 464.995 905.397 475.329 908.175C514.243 918.661 551.55 930.867 593.862 942.096C639.436 954.103 679.408 947.761 717.735 936.365C726.627 933.746 735.416 931.298 743.983 928.834C769.119 921.804 793.059 916.391 820.226 921.976C835.826 925.097 852.344 930.976 869.87 940.83C914.183 965.703 931.462 1004.51 964.431 1026.93C968.831 1029.9 973.487 1032.44 978.434 1034.69C1002.6 1045.7 1032.79 1047.39 1061.53 1037.03C1096.08 1024.55 1127.45 994.934 1145.2 959.065C1160.59 927.955 1167.06 893.634 1178.56 861.027C1198.03 804.882 1233.71 752.575 1278.72 714.9C1303.47 694.255 1330.82 678.42 1359.91 667.689C1412.73 648.168 1470.95 646.172 1527.59 658.365C1559.68 665.255 1590.64 677.173 1618.96 693.92" stroke="#4F92EA" stroke-miterlimit="10"/>
<path d="M114.201 728.52C165.147 726.618 236.035 749.276 291.185 788.982C319.309 808.988 343.568 832.162 367.732 852.369C392.48 873.158 416.241 890.914 444.974 903.252C454.231 907.251 463.812 910.512 474.041 912.879C512.795 921.873 550.062 932.193 592.236 942.873C637.31 954.35 677.098 949.295 714.781 940.543C723.59 938.455 732.193 936.711 740.573 934.951C765.115 929.895 788.29 926.354 814.809 932.833C830.136 936.607 846.466 942.606 863.801 951.997C907.82 975.997 927.077 1011.09 960.24 1030.26C964.673 1032.78 969.311 1034.96 974.154 1036.8C998.108 1045.82 1027.38 1045.91 1055.33 1034.74C1088.89 1021.2 1119.4 991.651 1137.43 956.296C1153.1 925.476 1160.83 891.785 1173.15 859.553C1194.34 804.431 1230.81 752.945 1276.24 716.332C1301.32 696.114 1328.76 680.913 1357.89 670.68C1410.74 652.102 1468.63 650.845 1525.3 663.175C1557.26 670.099 1588.19 681.881 1616.57 698.318" stroke="#548BEC" stroke-miterlimit="10"/>
<path d="M113.565 738.383C162.571 740.912 231.802 765.376 287.187 803.71C315.344 823.27 340.336 845.018 365.06 863.697C390.386 882.735 414.654 898.466 443.588 909.293C452.929 912.761 462.456 915.524 472.667 917.531C511.228 924.897 548.352 933.502 590.558 943.736C635.184 954.597 674.772 951.052 711.829 944.72C720.502 943.25 728.97 942.124 737.215 940.982C761.129 937.763 783.487 936.179 809.443 943.604C824.549 947.944 840.639 954.15 857.734 963.165C901.458 986.291 922.828 1017.64 956.05 1033.58C960.465 1035.74 965.135 1037.48 969.873 1038.9C993.615 1045.94 1022.06 1044.49 1049.14 1032.45C1081.78 1017.9 1111.4 988.282 1129.51 953.561C1145.43 923.118 1154.32 890.006 1167.64 858.251C1190.37 804.05 1227.81 753.487 1273.57 717.885C1298.97 698.094 1326.64 683.493 1355.69 673.792C1408.56 656.156 1466.13 655.638 1522.8 667.968C1554.67 674.841 1585.6 686.623 1614.02 702.614" stroke="#5A84ED" stroke-miterlimit="10"/>
<path d="M112.844 748.196C159.909 755.155 227.533 781.34 283.138 818.524C311.516 837.517 337.001 858.046 362.388 875.025C388.326 892.448 413.016 906.103 442.202 915.335C451.49 918.305 461.136 920.674 471.294 922.183C509.746 927.971 546.693 934.725 588.794 944.548C632.887 954.742 672.273 952.707 708.653 948.881C717.191 948.029 725.524 947.521 733.634 946.996C757.005 945.666 778.598 945.954 803.853 954.359C818.739 959.265 834.555 965.541 851.494 974.231C894.974 996.397 918.408 1024.08 951.687 1036.8C956.135 1038.52 960.838 1039.81 965.472 1040.82C989.002 1045.87 1016.62 1042.88 1042.82 1029.96C1074.41 1014.44 1103.22 984.81 1121.61 950.603C1137.86 920.588 1147.8 887.867 1162.15 856.726C1186.51 803.497 1224.83 753.805 1271 719.265C1296.73 699.903 1324.54 685.85 1353.64 676.646C1406.53 659.953 1463.78 660.173 1520.53 672.554C1552.35 679.514 1583.21 691.021 1611.73 706.841" stroke="#607DEE" stroke-miterlimit="10"/>
<path d="M112.208 758.059C157.384 769.364 223.351 797.355 279.088 833.338C307.601 851.713 333.717 870.988 359.665 886.439C386.214 902.248 411.378 913.74 440.764 921.462C450.136 923.901 459.729 925.772 469.869 926.922C508.213 931.132 544.931 936.12 587.116 945.411C630.709 955.075 669.998 954.378 705.648 953.144C714.102 952.824 722.249 953.02 730.087 953.148C752.83 953.655 773.692 955.952 798.299 965.251C812.912 970.81 828.54 977.206 845.288 985.433C888.475 1006.73 914.073 1030.58 947.359 1040.16C951.84 1041.43 956.439 1042.31 961.14 1043.01C984.406 1046.16 1011.16 1041.49 1036.65 1027.81C1067.33 1011.27 1095.2 981.665 1113.82 948.057C1130.3 918.418 1141.41 886.276 1156.67 855.561C1182.58 803.253 1221.95 754.535 1268.37 720.955C1294.46 702.157 1322.37 688.515 1351.56 679.945C1404.47 664.196 1461.39 665.155 1518.23 677.587C1549.97 684.495 1580.74 695.951 1609.38 711.376" stroke="#6576F0" stroke-miterlimit="10"/>
<path d="M111.623 767.836C154.86 783.573 219.271 813.198 275.228 848.031C303.911 865.925 330.571 883.895 357.096 897.595C384.223 911.653 409.894 921.12 439.481 927.332C448.937 929.238 458.563 930.664 468.598 931.402C506.834 934.035 543.374 937.171 585.541 946.103C628.686 955.151 667.774 955.963 702.712 957.098C711.031 957.396 719.008 958.073 726.746 958.956C748.946 961.351 768.905 965.555 792.949 975.799C807.341 981.924 822.73 988.527 839.323 996.429C882.266 1016.76 909.842 1036.91 943.271 1043.31C947.785 1044.14 952.365 1044.65 957.014 1044.86C980.067 1046.02 1005.99 1039.81 1030.61 1025.25C1060.29 1007.66 1087.35 978.038 1106.14 945.116C1122.92 915.768 1135.2 884.205 1151.4 854.052C1179 802.63 1219.19 754.87 1265.94 722.301C1292.36 703.93 1320.44 690.974 1349.65 682.764C1402.58 667.958 1459.18 669.656 1515.97 682.174C1547.65 689.168 1578.44 700.401 1607.01 715.552" stroke="#6B70F1" stroke-miterlimit="10"/>
<path d="M110.987 777.7C152.197 797.816 215.088 829.213 271.178 862.845C299.997 880.122 327.235 896.923 354.424 908.923C382.163 921.367 408.341 928.808 438.095 933.373C447.583 934.834 457.242 935.813 467.224 936.054C505.352 937.11 541.663 938.48 583.828 946.829C626.389 955.296 665.327 957.532 699.673 961.224C707.857 962.14 715.699 963.435 723.25 965.021C744.821 969.254 764.05 975.467 787.395 986.69C801.429 993.418 816.715 1000.19 833.118 1007.63C875.766 1027.09 905.456 1043.49 938.943 1046.67C943.49 1047.05 948.052 1047.21 952.596 1047C975.437 1046.17 1000.45 1038.37 1024.27 1022.99C1052.95 1004.34 1079.16 974.79 1098.23 942.381C1115.25 913.409 1128.69 882.426 1145.81 852.699C1174.95 802.198 1216.19 755.412 1263.27 723.853C1290.01 705.91 1318.23 693.502 1347.45 685.876C1400.45 671.927 1456.67 674.449 1513.55 687.018C1545.15 693.961 1575.85 705.143 1604.62 719.95" stroke="#7069F3" stroke-miterlimit="10"/>
<path d="M110.266 787.512C149.535 812.059 210.871 845.091 267.043 877.608C295.997 894.266 323.866 909.814 351.615 920.286C380.017 931.029 406.617 936.394 436.571 939.449C446.144 940.378 455.75 940.86 465.628 940.69C503.647 940.168 539.781 939.687 581.928 947.675C623.989 955.612 662.777 959.273 696.411 965.334C704.511 966.782 712.167 968.78 719.497 970.934C740.44 977.003 758.938 985.225 781.634 997.342C795.447 1004.64 810.544 1011.53 826.706 1018.59C869.111 1037.09 900.864 1049.83 934.461 1049.7C938.988 1049.72 943.635 1049.35 948.16 1048.78C970.789 1045.96 994.973 1036.62 1018 1020.42C1045.77 1000.76 1071.04 971.232 1090.33 939.423C1107.67 910.879 1122.17 880.287 1140.32 851.174C1171.09 801.645 1213.21 755.731 1260.61 725.182C1287.69 707.667 1316.05 695.808 1345.31 688.678C1398.33 675.673 1454.24 678.933 1511.2 691.553C1542.74 698.582 1573.38 709.49 1602.22 723.988" stroke="#7662F4" stroke-miterlimit="10"/>
<path d="M109.63 797.375C146.959 826.354 206.774 861.157 263.131 892.387C292.254 908.565 320.668 922.807 349.08 931.579C378.008 940.657 405.116 943.996 435.322 945.456C444.928 945.938 454.618 945.889 464.391 945.307C502.217 943.157 538.207 940.962 580.352 948.367C621.965 955.688 660.553 960.858 693.509 969.426C701.474 971.491 708.994 974.107 716.189 976.878C736.59 984.836 754.544 994.363 776.318 1008.03C789.655 1016.32 804.683 1022.94 820.74 1029.59C862.851 1047.22 896.683 1056.07 930.372 1052.86C934.933 1052.43 939.475 1051.64 943.982 1050.72C966.398 1045.91 989.754 1035.03 1011.91 1017.96C1038.68 997.237 1063.14 967.692 1082.6 936.568C1100.19 908.4 1115.9 878.301 1134.91 849.7C1167.23 801.092 1210.4 756.152 1258.1 726.477C1285.58 709.441 1313.94 698.164 1343.27 691.532C1396.31 679.47 1451.88 683.468 1508.8 696.175C1540.26 703.152 1570.89 714.06 1599.71 728.198" stroke="#7C5BF5" stroke-miterlimit="10"/>
<path d="M108.994 807.239C144.383 840.648 202.694 877 259.081 907.201C288.391 922.675 317.47 935.801 346.357 942.993C375.948 950.371 403.478 951.634 433.885 951.583C443.574 951.534 453.16 951.073 462.966 950.046C500.735 946.232 536.531 942.408 578.623 949.316C619.651 956.056 658.124 962.787 690.505 973.689C698.334 976.372 705.72 979.606 712.729 983.081C732.501 992.876 749.314 1005.1 770.936 1019.02C784.204 1027.62 798.891 1034.62 814.656 1040.98C856.523 1057.65 892.418 1062.84 926.165 1056.4C930.758 1055.53 935.282 1054.38 939.685 1053.05C961.837 1046.34 984.331 1033.78 1005.69 1015.89C1031.55 994.157 1055.07 964.632 1074.72 933.97C1092.69 906.145 1109.34 876.608 1129.49 848.449C1163.27 800.711 1207.49 756.745 1255.6 728.132C1283.41 711.523 1312 700.846 1341.24 694.746C1394.3 683.627 1449.52 688.227 1506.55 701.122C1537.96 708.185 1568.52 718.819 1597.5 732.699" stroke="#8154F7" stroke-miterlimit="10"/>
<path d="M108.272 817.051C141.721 854.892 198.426 892.964 255.083 921.929C284.563 936.922 314.186 948.743 343.737 954.235C373.94 959.999 401.978 959.236 432.601 957.453C442.324 956.957 451.993 955.965 461.695 954.526C499.355 949.135 534.923 943.545 577.099 949.921C617.628 956.131 655.951 964.286 687.569 977.643C695.263 980.944 702.462 984.882 709.387 988.889C728.787 1000.09 744.614 1014.75 765.586 1029.57C778.634 1038.74 793.081 1045.94 808.655 1051.84C850.279 1067.55 888.203 1068.95 922.042 1059.42C926.668 1058.1 931.225 1056.51 935.609 1054.81C957.463 1046.06 979.214 1032.01 999.783 1013.3C1024.59 990.596 1047.3 961.056 1067.18 930.994C1085.39 903.545 1103.26 874.502 1124.27 846.854C1159.68 800.088 1204.86 757.045 1253.22 729.392C1281.31 713.297 1310.09 703.082 1339.38 697.479C1392.37 687.252 1447.35 692.642 1504.47 705.587C1535.74 712.686 1566.27 723.182 1595.32 736.754" stroke="#874DF8" stroke-miterlimit="10"/>
<path d="M107.636 826.914C139.11 869.049 194.244 908.979 251.034 936.743C280.649 951.118 310.902 961.685 341.014 965.648C371.794 969.661 400.34 966.873 431.164 963.58C440.971 962.553 450.587 961.063 460.27 959.264C497.823 952.296 533.212 944.854 575.284 950.819C615.365 956.413 653.436 966.164 684.479 981.855C692.089 985.688 699.153 990.244 705.754 994.989C724.407 1008.42 739.536 1024.65 759.946 1040.41C772.721 1050.23 786.98 1057.56 802.365 1062.99C843.745 1077.74 883.731 1075.48 917.629 1062.73C922.287 1060.96 926.826 1059.01 931.106 1056.9C952.748 1046.16 973.67 1030.57 993.361 1010.99C1017.17 987.225 1039.08 957.671 1059.13 928.295C1077.58 901.222 1096.62 872.758 1118.62 845.587C1155.58 799.742 1201.76 757.758 1250.41 730.979C1278.91 715.363 1307.74 705.645 1337.12 700.676C1390.14 691.393 1444.8 697.521 1501.92 710.467C1533.19 717.565 1563.68 727.925 1592.71 741.136" stroke="#8D46F9" stroke-miterlimit="10"/>
<path d="M107.051 836.692C136.585 883.258 190.163 924.822 247.036 951.471C276.786 965.229 307.618 974.627 338.393 976.89C369.785 979.289 398.839 974.476 429.829 969.536C439.668 968.062 449.282 965.989 458.948 963.83C496.357 955.147 531.553 946.077 573.708 951.51C613.29 956.574 651.331 967.354 681.491 985.895C688.915 990.432 695.946 995.434 702.361 1000.88C720.385 1016.16 734.732 1034.47 754.545 1051.04C766.962 1061.46 781.084 1068.83 796.313 1073.94C837.399 1087.81 879.464 1081.67 913.454 1065.83C918.095 1063.7 922.58 1061.25 926.893 1058.7C948.322 1045.97 968.33 1028.79 987.23 1008.39C1010.13 983.613 1031.09 954.079 1051.42 925.216C1070.19 898.571 1090.29 870.498 1113.31 843.941C1151.91 799.068 1199.05 758.008 1248.03 732.239C1276.86 717.05 1305.87 708.018 1335.26 703.409C1388.3 695.069 1442.63 701.936 1499.79 715.018C1530.92 722.152 1561.38 732.374 1590.61 745.241" stroke="#9240FB" stroke-miterlimit="10"/>
<path d="M106.415 846.555C134.009 897.552 185.981 940.837 243.124 966.25C273.043 979.527 304.472 987.534 335.807 988.269C367.863 988.968 397.338 982.078 428.529 975.629C438.366 973.572 448.048 971.19 457.66 968.534C494.961 958.274 530.014 947.489 572.03 952.373C611.113 956.907 648.748 969.541 678.487 990.159C685.827 995.228 692.585 1000.88 698.9 1007.09C716.433 1024.16 729.827 1044.47 749.076 1061.99C761.221 1073.06 775.155 1080.54 790.142 1085.28C830.985 1098.19 875.028 1088.34 909.161 1069.32C913.834 1066.75 918.301 1063.94 922.51 1060.98C943.727 1046.26 962.906 1027.54 980.928 1006.26C1002.83 980.43 1023.02 951.019 1043.49 922.705C1062.64 896.401 1083.81 868.856 1107.7 842.811C1147.84 798.859 1195.98 758.858 1245.26 733.963C1274.45 719.34 1303.56 710.719 1332.96 706.693C1386.01 699.295 1440.03 706.901 1497.27 720.035C1528.31 727.117 1558.69 737.288 1587.99 749.847" stroke="#9839FC" stroke-miterlimit="10"/>
<path d="M105.694 856.367C131.347 911.796 181.712 956.8 238.989 981.013C269.043 993.672 301.051 1000.51 333.049 999.546C365.631 998.58 395.614 989.664 427.057 981.619C436.927 979.116 446.607 976.151 456.201 973.135C493.308 961.246 528.166 948.833 570.267 953.185C608.799 957.275 646.199 971.282 675.362 994.234C682.567 999.921 689.19 1006.19 695.284 1012.96C712.24 1031.79 724.8 1054.28 743.452 1072.6C755.325 1084.33 769.121 1091.85 783.868 1096.2C824.519 1108.07 870.538 1094.51 904.764 1072.41C909.47 1069.39 913.97 1066.13 918.16 1062.81C939.113 1046.19 957.516 1025.84 974.746 1003.75C995.734 976.904 1015.03 947.427 1035.67 919.798C1055.07 893.871 1077.41 866.905 1102.3 841.337C1144.12 798.271 1193.17 759.279 1242.69 735.344C1272.21 721.148 1301.46 713.075 1330.91 709.547C1383.98 703.092 1437.67 711.436 1494.91 724.57C1525.91 731.738 1556.3 741.686 1585.58 753.885" stroke="#9D32FE" stroke-miterlimit="10"/>
<path d="M105.058 866.231C141.258 957.502 236.01 1018.46 330.378 1010.87C363.623 1008.21 394.027 997.216 425.671 987.66C474.379 972.903 515.682 949.08 568.554 953.911C616.04 958.211 662.182 981.381 691.84 1018.94C708.253 1039.66 719.911 1064.06 738 1083.32C786.122 1134.44 868.705 1105.4 913.794 1064.87C959.789 1023.59 989.645 966.411 1027.76 917.063C1080.45 848.699 1160.43 773.417 1240.07 736.81C1323.84 698.354 1403.43 708.738 1492.49 729.414C1523.41 736.531 1553.71 746.428 1583.14 758.369" stroke="#A32BFF" stroke-miterlimit="10"/>
</g>
</svg>
